<svg width="91" height="19" viewBox="0 0 91 19" fill="none" xmlns="http://www.w3.org/2000/svg">
<path d="M0.65625 5.5H5.46875L3.40625 18H7.6875L9.75 5.5H14.5625L15.1562 2H1.25L0.65625 5.5ZM14.1973 18H18.5098L20.5098 6H16.1973L14.1973 18ZM18.541 4.75C19.7129 4.75 20.8066 3.85937 20.9785 2.78125C21.1504 1.6875 20.3535 0.8125 19.1816 0.8125C18.0098 0.8125 16.916 1.6875 16.7285 2.78125C16.541 3.85937 17.3691 4.75 18.541 4.75ZM26.4258 18.2187C29.7695 18.2187 32.1445 16.625 32.9883 14.125H29.0508C28.6758 14.8125 27.8945 15.1875 27.0195 15.1875C25.7383 15.1875 25.1445 14.3437 25.332 13.1875L25.3711 13H33.1758L33.332 12C33.957 8.1875 32.0195 5.84375 28.3945 5.84375C24.6758 5.84375 21.8945 8.3125 21.2695 12.0313C20.6133 15.9062 22.582 18.2187 26.4258 18.2187ZM25.8164 10.625C26.0586 9.57031 26.9805 8.875 28.0195 8.875C29.082 8.875 29.7383 9.59375 29.582 10.625H25.8164ZM39.5605 11.25C39.7559 10.0625 40.5684 9.34375 41.623 9.34375C42.7246 9.34375 43.2246 10.0625 43.0293 11.25L41.9043 18H46.2168L47.498 10.3437C47.9434 7.71875 46.5996 5.84375 44.0605 5.84375C42.2871 5.84375 40.7246 6.75 39.9668 8.28125H39.8418L40.2168 6H36.123L34.123 18H38.4355L39.5605 11.25ZM52.6426 18.1563C54.3223 18.1563 55.627 17.25 56.3301 16.0312H56.4238L56.0957 18H60.377L63.0332 2H58.7207L57.7051 8.09375H57.6426C57.377 6.875 56.4238 5.84375 54.6426 5.84375C52.2676 5.84375 49.6582 7.65625 48.9395 12C48.252 16.1562 50.0723 18.1563 52.6426 18.1563ZM54.7832 14.8438C53.5879 14.8438 53.0801 13.7812 53.377 12C53.666 10.2187 54.5332 9.15625 55.7207 9.15625C56.9082 9.15625 57.4473 10.2187 57.1582 12C56.8691 13.75 55.9629 14.8438 54.7832 14.8438ZM62.4941 18H66.8066L68.8066 6H64.4941L62.4941 18ZM66.8379 4.75C68.0098 4.75 69.1035 3.85937 69.2754 2.78125C69.4473 1.6875 68.6504 0.8125 67.4785 0.8125C66.3066 0.8125 65.2129 1.6875 65.0254 2.78125C64.8379 3.85937 65.666 4.75 66.8379 4.75ZM78.1602 6H76.0898L76.5664 3.125H72.2539L71.7773 6H70.2539L69.7227 9.125H71.2617L70.3633 14.5469C69.8945 17.0469 71.2383 18.3203 74.2695 18.1719C75.2383 18.125 75.9883 17.9219 76.4258 17.7969L76.3008 14.7656C76.1133 14.7969 75.6758 14.8906 75.4258 14.8906C74.8633 14.8906 74.6523 14.6406 74.7383 14.1406L75.5742 9.125H77.6289L78.1602 6ZM81.2324 18.1875C82.7949 18.1875 84.0762 17.6562 85.0137 16.3125H85.1074L84.8262 18H88.8574L90.2324 9.78125C90.6074 7.5625 88.7637 5.84375 85.3574 5.84375C81.7637 5.84375 79.6699 7.71875 79.1699 9.90625H83.1387C83.3574 9.15625 83.9824 8.8125 84.7949 8.8125C85.5449 8.8125 86.0137 9.15625 85.9199 9.78125V9.8125C85.7949 10.5 84.9824 10.7188 82.9512 10.875C80.4512 11.0625 78.3574 12.0625 77.9199 14.6875C77.5137 17.0625 78.9512 18.1875 81.2324 18.1875ZM83.1074 15.4687C82.3574 15.4687 81.9199 15.0937 82.0137 14.4375C82.1074 13.8125 82.6387 13.3437 83.6699 13.1875C84.3574 13.0625 84.9824 12.9375 85.4512 12.75L85.2949 13.75C85.1074 14.8438 84.0762 15.4687 83.1074 15.4687Z" fill="#FC462D"/>
</svg>
